{"title":"Wood Job! [Shinobu Yaguchi, 2014] 1080p.x264.AC3","uid":14451343,"size":1577980816,"categoryP":"video","categoryS":"hd___movies","magnet":"?xt=urn:btih:796f246f8a2893dcf555be84c5bafa09c4218755&amp;dn=Wood+Job%21+%5BShinobu+Yaguchi%2C+2014%5D+1080p.x264.AC3&amp;tr=udp%3A%2F%2Ftracker.leechers-paradise.org%3A6969&amp;tr=udp%3A%2F%2Fzer0day.ch%3A1337&amp;tr=udp%3A%2F%2Fopen.demonii.com%3A1337&amp;tr=udp%3A%2F%2Ftracker.coppersurfer.tk%3A6969&amp;tr=udp%3A%2F%2Fexodus.desync.com%3A6969","seeders":1,"leechers":1,"uploader":null,"files":9,"time":1461754759,"description":"Storyline\r\nAfter failing his university entrance examinations and being left by his girlfriend, Yuki Hirano decides to join a forestry training program only to discover that the job is much harder than he expected working under his high demanding boss.\r\n\r\n\r\nGeneral\r\nComplete name                            : C:Wood.Job!.2014.JAP.BDRip.x264.AC3-ADiOS.mkv\r\nFormat                                   : Matroska\r\nFormat version                           : Version 2\r\nFile size                                : 1.47 GiB\r\nDuration                                 : 1h 56mn\r\nOverall bit rate                         : 1 811 Kbps\r\nEncoded date                             : UTC 2014-11-10 11:22:54\r\nWriting application                      : mkvmerge v5.8.0 ('No Sleep / Pillow') built on Sep  2 2012 15:37:04\r\nWriting library                          : Kirara Encoder\r\n\r\nVideo\r\nID                                       : 1\r\nFormat                                   : MPEG-4 Visual\r\nFormat profile                           :   \r\nFormat settings, BVOP                    : No\r\nFormat settings, QPel                    : No\r\nFormat settings, GMC                     : No warppoints\r\nFormat settings, Matrix                  : Default (H.263)\r\nCodec ID                                 : V_MPEG4/ISO/ASP\r\nCodec ID/Info                            : Advanced Simple Profile\r\nDuration                                 : 1h 56mn\r\nBit rate                                 : 1 583 Kbps\r\nWidth                                    : 1 024 pixels\r\nHeight                                   : 562 pixels\r\nDisplay aspect ratio                     : 1.85:1\r\nFrame rate mode                          : Constant\r\nFrame rate                               : 23.976 fps\r\nColor space                              : YUV\r\nChroma subsampling                       : 4:2:0\r\nBit depth                                : 8 bits\r\nScan type                                : Progressive\r\nCompression mode                         : Lossy\r\nBits/(Pixel*Frame)                       : 0.115\r\nStream size                              : 1.28 GiB (87%)\r\nWriting library                          : Lavc54.33.100\r\nDefault                                  : Yes\r\nForced                                   : No\r\n\r\nAudio\r\nID                                       : 2\r\nFormat                                   : AC-3\r\nFormat/Info                              : Audio Coding 3\r\nMode extension                           : CM (complete main)\r\nFormat settings, Endianness              : Big\r\nMuxing mode                              : Header stripping\r\nCodec ID                                 : A_AC3\r\nDuration                                 : 1h 56mn\r\nBit rate mode                            : Constant\r\nBit rate                                 : 192 Kbps\r\nChannel(s)                               : 6 channels\r\nChannel positions                        : Front: L C R, Side: L R, LFE\r\nSampling rate                            : 48.0 KHz\r\nBit depth                                : 16 bits\r\nCompression mode                         : Lossy\r\nDelay relative to video                  : -57ms\r\nStream size                              : 159 MiB (11%)\r\nDefault                                  : Yes\r\nForced                                   : No\r\nLanguage\t\t\t\t : Japanese\r\n\r\n\r\nSynchronized English (&amp; other languages) subtitles are available at opensubtitles(dot)org","torrent":{"xt":"urn:btih:796f246f8a2893dcf555be84c5bafa09c4218755","amp;dn":"Wood+Job%21+%5BShinobu+Yaguchi%2C+2014%5D+1080p.x264.AC3","amp;tr":["udp%3A%2F%2Ftracker.leechers-paradise.org%3A6969","udp%3A%2F%2Fzer0day.ch%3A1337","udp%3A%2F%2Fopen.demonii.com%3A1337","udp%3A%2F%2Ftracker.coppersurfer.tk%3A6969","udp%3A%2F%2Fexodus.desync.com%3A6969"],"infoHash":"796f246f8a2893dcf555be84c5bafa09c4218755","infoHashBuffer":{"type":"Buffer","data":[121,111,36,111,138,40,147,220,245,85,190,132,197,186,250,9,196,33,135,85]},"announce":[],"urlList":[]}}